<?xml version="1.0" encoding="utf-8" ?>
<svg baseProfile="tiny" height="888" version="1.2" width="888" xmlns="http://www.w3.org/2000/svg" xmlns:ev="http://www.w3.org/2001/xml-events" xmlns:xlink="http://www.w3.org/1999/xlink"><defs /><path d="M 360,548 L 356,556 L 349,589 L 349,614 L 352,637 L 373,637 L 427,632 L 454,625 L 463,620 L 461,617 L 426,592 L 396,573 L 361,548 Z" fill="black" /><path d="M 631,504 L 594,538 L 582,547 L 602,547 L 619,545 L 645,538 L 639,516 L 633,506 Z" fill="black" /><path d="M 365,359 L 358,363 L 343,376 L 315,404 L 297,426 L 265,472 L 246,512 L 233,560 L 229,602 L 230,638 L 237,681 L 248,721 L 256,739 L 264,752 L 284,779 L 297,792 L 321,811 L 346,826 L 396,843 L 406,845 L 448,845 L 453,843 L 469,842 L 499,832 L 539,814 L 578,786 L 605,758 L 620,736 L 636,704 L 641,688 L 643,673 L 599,668 L 543,653 L 535,667 L 517,688 L 487,713 L 467,723 L 442,727 L 422,726 L 400,721 L 385,714 L 369,704 L 357,692 L 348,679 L 345,672 L 333,625 L 332,603 L 338,562 L 346,540 L 370,501 L 401,464 L 416,449 L 443,426 L 443,422 L 412,391 L 389,372 L 367,359 Z" fill="black" /><path d="M 260,326 L 238,331 L 226,336 L 223,339 L 223,346 L 232,373 L 247,404 L 271,440 L 273,440 L 277,436 L 290,418 L 313,394 L 312,390 L 305,381 L 291,355 L 281,326 Z" fill="black" /><path d="M 690,263 L 689,275 L 691,322 L 688,372 L 702,382 L 718,400 L 727,416 L 732,440 L 732,455 L 727,479 L 711,507 L 698,522 L 673,539 L 653,549 L 641,553 L 600,560 L 560,557 L 528,548 L 490,531 L 454,509 L 438,501 L 404,478 L 393,489 L 372,517 L 365,530 L 365,533 L 403,560 L 484,610 L 539,635 L 587,650 L 623,655 L 663,655 L 691,650 L 715,642 L 730,635 L 761,616 L 783,600 L 799,584 L 815,563 L 833,528 L 841,508 L 846,484 L 847,454 L 839,414 L 834,400 L 825,382 L 805,353 L 792,337 L 776,321 L 742,295 L 705,270 L 691,263 Z" fill="black" /><path d="M 573,247 L 549,252 L 526,260 L 499,272 L 481,282 L 515,314 L 558,361 L 571,356 L 579,327 L 582,304 L 582,266 L 579,247 Z" fill="black" /><path d="M 234,211 L 196,216 L 160,227 L 122,246 L 96,267 L 71,294 L 54,319 L 47,332 L 38,357 L 31,406 L 32,442 L 38,477 L 43,491 L 54,513 L 69,536 L 102,570 L 120,584 L 144,598 L 165,608 L 213,625 L 215,625 L 216,622 L 216,604 L 219,576 L 224,547 L 229,528 L 229,522 L 193,506 L 181,497 L 171,487 L 161,473 L 153,457 L 147,441 L 144,424 L 145,407 L 152,380 L 158,369 L 167,358 L 185,342 L 221,323 L 248,316 L 295,316 L 338,329 L 361,340 L 394,359 L 417,377 L 461,419 L 496,463 L 506,454 L 528,429 L 546,406 L 555,390 L 554,384 L 544,371 L 517,341 L 487,311 L 455,284 L 430,266 L 420,262 L 400,248 L 354,227 L 317,216 L 273,211 Z" fill="black" /><path d="M 349,82 L 323,93 L 302,107 L 283,123 L 261,147 L 246,168 L 235,191 L 235,196 L 282,196 L 297,164 L 314,137 L 325,123 L 344,104 L 352,99 L 349,84 Z" fill="black" /><path d="M 465,37 L 437,46 L 408,45 L 399,43 L 380,43 L 370,46 L 363,51 L 359,59 L 359,88 L 364,100 L 374,111 L 384,119 L 406,129 L 422,133 L 462,136 L 470,138 L 498,150 L 516,155 L 547,155 L 562,170 L 566,176 L 585,213 L 590,230 L 593,248 L 595,296 L 588,342 L 580,369 L 567,393 L 529,446 L 503,477 L 481,498 L 474,502 L 488,513 L 516,528 L 539,538 L 554,543 L 558,543 L 569,538 L 586,525 L 621,491 L 638,467 L 653,439 L 663,410 L 673,370 L 675,333 L 675,285 L 673,262 L 664,227 L 648,185 L 627,146 L 605,113 L 591,81 L 578,70 L 567,58 L 555,50 L 534,47 L 512,41 L 486,40 L 474,37 Z" fill="black" /><path d="M 405,120 L 411,119 L 414,122 L 412,124 L 409,124 L 405,121 Z" fill="white" /><path d="M 391,111 L 392,110 L 397,112 L 399,116 L 397,118 L 392,117 L 389,114 L 390,111 Z" fill="white" /><path d="M 458,109 L 470,108 L 475,111 L 479,118 L 478,124 L 475,127 L 468,128 L 458,126 L 451,122 L 448,119 L 448,114 L 456,109 Z" fill="white" /><path d="M 375,102 L 381,101 L 386,107 L 384,109 L 380,109 L 375,105 Z" fill="white" /><path d="M 367,88 L 371,88 L 375,94 L 375,96 L 372,99 L 367,96 L 365,90 Z" fill="white" /><path d="M 366,73 L 370,73 L 368,84 L 362,82 L 362,77 L 365,73 Z" fill="white" /><path d="M 362,56 L 365,56 L 365,67 L 361,65 L 362,59 Z" fill="white" /></svg>
