<?xml version="1.0" encoding="UTF-8"?>
<svg version="1.1" xmlns="http://www.w3.org/2000/svg" width="1024" height="1024">
<path d="M0 0 C1.99490357 0.98802814 3.99892492 1.95372884 6.00817871 2.91217041 C13.2633042 6.39910668 19.76957895 10.34860689 26.21813965 15.16168213 C33.77244171 20.6718708 33.77244171 20.6718708 42.21813965 24.59918213 C50.42936702 27.54173245 57.11796704 33.25087917 64.00866699 38.46343994 C65.81298768 39.82523925 67.62882934 41.16734331 69.4564209 42.49761963 C76.38145135 47.5790327 82.93376416 53.02619509 89.4432373 58.6206665 C92.19158766 60.97941644 94.95475135 63.32058773 97.71813965 65.66168213 C98.67978027 66.47894775 99.6414209 67.29621338 100.63220215 68.13824463 C102.49757643 69.72274006 104.38038081 71.25914889 106.3157959 72.75811768 C115.01697309 79.59605763 122.70810737 87.38310487 130.49206543 95.22979736 C132.84681479 97.60288589 135.20955106 99.96779144 137.5736084 102.331604 C139.09621726 103.85912702 140.61836861 105.38710624 142.14001465 106.91558838 C143.18243317 107.95967613 143.18243317 107.95967613 144.24591064 109.02485657 C148.16876787 112.98536614 151.92657695 117.04221634 155.56378174 121.26701355 C157.84928537 123.91164235 160.22112948 126.46932995 162.59313965 129.03668213 C171.00875938 138.19510766 179.01481189 147.62405714 186.74353027 157.3706665 C188.12512376 159.12127491 188.12512376 159.12127491 189.92126465 160.95855713 C191.92539837 164.51255427 192.36862703 167.98669159 192.09313965 172.03668213 C190.98837311 175.34739019 189.31939062 178.15207215 187.46813965 181.09918213 C186.97249512 181.91991211 186.47685059 182.74064209 185.96618652 183.58624268 C181.16925942 191.3200182 175.55706144 198.25745395 169.66003418 205.16656494 C167.1903423 208.11418722 164.87062331 211.17346766 162.53063965 214.22418213 C158.42346635 219.52622393 154.03707592 224.47566746 149.43273926 229.34942627 C146.30987558 232.66699357 143.41113033 236.07561095 140.59313965 239.66168213 C137.2214537 243.86236976 133.60817129 247.58176857 129.65563965 251.22418213 C129.1348584 251.70645264 128.61407715 252.18872314 128.07751465 252.68560791 C124.35164115 256.03668213 124.35164115 256.03668213 122.09313965 256.03668213 C120.40846857 254.07276684 118.83799841 252.09862623 117.28063965 250.03668213 C116.28719161 248.74528281 115.29234342 247.45495966 114.29626465 246.16558838 C113.7735498 245.48770264 113.25083496 244.80981689 112.71228027 244.11138916 C110.0401292 240.68739341 107.28332162 237.33350455 104.53063965 233.97418213 C100.55855578 229.11318315 96.65040373 224.21536222 92.84313965 219.22418213 C86.29479686 210.67965098 79.99652196 202.55775777 71.83532715 195.48980713 C68.5847315 192.58186687 65.52950131 189.51616775 62.46813965 186.41168213 C58.53740463 182.43466998 54.56571119 178.63536416 50.2923584 175.02496338 C47.84715637 172.81429227 45.56366173 170.48273511 43.26281738 168.12359619 C36.51680588 161.21882262 29.50859691 155.14615362 21.79919434 149.35015869 C20.14263432 148.07478764 18.54066494 146.75399219 16.94470215 145.40386963 C6.25085591 136.44859348 -5.76964582 129.82989922 -17.90686035 123.03668213 C-18.85722168 122.4983374 -19.80758301 121.95999268 -20.78674316 121.40533447 C-27.10102708 117.83181743 -33.47592179 114.39519471 -39.90686035 111.03668213 C-40.68384277 110.61999268 -41.4608252 110.20330322 -42.26135254 109.77398682 C-48.63413255 106.40175797 -55.18993943 103.64347415 -61.90686035 101.03668213 C-62.63095093 100.75059082 -63.3550415 100.46449951 -64.10107422 100.16973877 C-102.72479513 85.00432756 -150.67161877 77.63599064 -190.44934082 93.5244751 C-202.29202317 98.70408069 -213.67321946 104.6563828 -224.90686035 111.03668213 C-225.99007568 111.63190674 -227.07329102 112.22713135 -228.18933105 112.84039307 C-234.46908395 116.35693675 -239.73400465 120.10137344 -244.84436035 125.16168213 C-245.46375488 125.75593994 -246.08314941 126.35019775 -246.72131348 126.96246338 C-250.16171353 130.27489956 -253.53849466 133.6511309 -256.90686035 137.03668213 C-257.55268066 137.66187744 -258.19850098 138.28707275 -258.8638916 138.93121338 C-268.95339052 149.36056911 -273.21935327 161.9621792 -276.84436035 175.72418213 C-277.1389917 176.83970459 -277.43362305 177.95522705 -277.73718262 179.10455322 C-279.62931114 186.74387462 -280.53840585 194.18229447 -280.90686035 202.03668213 C-280.95576416 202.97076904 -281.00466797 203.90485596 -281.05505371 204.86724854 C-282.29369161 234.30346346 -265.29905047 264.88339616 -246.70373535 286.61090088 C-234.87527696 299.16220951 -220.48380547 305.96330469 -204.88928223 312.73931885 C-201.18534708 314.35054277 -197.49898841 315.99964652 -193.81213379 317.6494751 C-190.51508713 319.12263784 -187.21143663 320.5804989 -183.90686035 322.03668213 C-183.53881588 329.31481029 -184.53597867 335.3770654 -186.53186035 342.34918213 C-194.24322812 371.18097472 -197.88555369 401.40574626 -198.47839355 431.19342041 C-198.52032837 432.85026855 -198.52032837 432.85026855 -198.56311035 434.54058838 C-198.58180176 435.52873535 -198.60049316 436.51688232 -198.61975098 437.53497314 C-198.90686035 440.03668213 -198.90686035 440.03668213 -200.90686035 443.03668213 C-206.94401068 442.34657549 -212.44325999 440.25575771 -218.1373291 438.23980713 C-219.23281067 437.8547702 -220.32829224 437.46973328 -221.45697021 437.07302856 C-225.00602012 435.81985637 -228.55086984 434.55548545 -232.09436035 433.28668213 C-233.89986862 432.6405899 -233.89986862 432.6405899 -235.74185181 431.98144531 C-253.36125613 425.64873792 -270.49650046 419.12491779 -286.90686035 410.03668213 C-287.87945801 409.50381592 -288.85205566 408.97094971 -289.85412598 408.42193604 C-312.06710207 396.12312311 -330.2780769 380.86647478 -348.10876465 362.96514893 C-349.73238264 361.33611641 -351.36135638 359.71257484 -352.99084473 358.0894165 C-358.50388892 352.58034674 -363.91052931 347.0258624 -368.90686035 341.03668213 C-369.56814941 340.25679932 -370.22943848 339.4769165 -370.9107666 338.67340088 C-397.95606407 302.94820364 -413.74746565 261.64052735 -413.87463379 216.64117432 C-413.91080234 213.71809808 -414.05425301 210.80806906 -414.19592285 207.88824463 C-414.80147976 191.32927339 -413.1174216 175.35529635 -410.84436035 158.97418213 C-410.70691406 157.94322418 -410.56946777 156.91226624 -410.42785645 155.85006714 C-408.55777151 142.05118613 -405.50913339 129.25303814 -400.69599915 116.18019104 C-399.96088122 114.18341704 -399.25134647 112.17980104 -398.55212402 110.17022705 C-393.91672634 97.02283868 -386.19276433 85.7777237 -378.46936035 74.28668213 C-377.76585449 73.2331958 -377.06234863 72.17970947 -376.33752441 71.09429932 C-371.66597457 64.23478109 -366.57885299 58.08542951 -360.90686035 52.03668213 C-359.50773324 50.47713082 -358.11150059 48.91497346 -356.71936035 47.34918213 C-355.97299316 46.52547119 -355.22662598 45.70176025 -354.4576416 44.85308838 C-353.10602327 43.36071959 -351.75610894 41.86672168 -350.42004395 40.3604126 C-341.89326948 30.75833017 -332.8246786 22.44833797 -322.73986816 14.50396729 C-321.21932441 13.2868032 -319.7406512 12.01754683 -318.27404785 10.73590088 C-311.18470861 4.57286903 -303.00239937 0.62412594 -294.65734863 -3.55218506 C-291.85962435 -4.98755221 -289.11718762 -6.50097842 -286.3717041 -8.03363037 C-202.5692424 -53.80983808 -92.68530517 -44.90439146 0 0 Z " fill="#FFFFFF" transform="translate(448.9068603515625,278.96331787109375)"/>
<path d="M0 0 C2.83325195 1.36352539 2.83325195 1.36352539 5.73828125 3.09765625 C7.34026367 4.05381836 7.34026367 4.05381836 8.97460938 5.02929688 C10.07611328 5.70025391 11.17761719 6.37121094 12.3125 7.0625 C13.94735352 8.02833008 13.94735352 8.02833008 15.61523438 9.01367188 C22.4060808 13.10941389 28.2260675 17.58568445 34 23 C36.62190452 25.17502865 39.27318106 27.30609628 41.93359375 29.43359375 C51.39606163 37.35313693 60.22823701 45.9241268 68.99902344 54.59399414 C70.42812952 56.00127304 71.8634776 57.40223846 73.3046875 58.79711914 C75.40779278 60.83355333 77.4907379 62.88879468 79.5703125 64.94921875 C80.21702911 65.56810471 80.86374573 66.18699066 81.53005981 66.82463074 C84.37510892 69.68309598 85.85589779 71.19732591 86.58276367 75.24609375 C85.94292583 78.26970954 85.46102853 79.19002158 83.10546875 81.11328125 C82.48526855 81.63414307 81.86506836 82.15500488 81.22607422 82.69165039 C80.21697998 83.49397095 80.21697998 83.49397095 79.1875 84.3125 C78.50187988 84.88154053 77.81625977 85.45058105 77.10986328 86.03686523 C75.08735607 87.70953208 73.04739892 89.35794992 71 91 C69.1244004 92.5200938 67.24932056 94.04082938 65.375 95.5625 C64.50746094 96.26632812 63.63992188 96.97015625 62.74609375 97.6953125 C51.07634005 107.48927364 39.92906288 118.11346905 30.4140625 130.015625 C27.67436635 133.40256328 24.8465171 136.70292605 22 140 C10.57892709 153.27659232 0.15544433 166.75179759 -8.9375 181.75 C-9.99545083 183.49304677 -11.05365712 185.23593818 -12.11195374 186.97877502 C-13.13266801 188.6603682 -14.15228456 190.34262752 -15.171875 192.02490234 C-16.64886051 194.42855424 -18.15724973 196.79561295 -19.71875 199.14453125 C-37.51414116 226.16967787 -43.98448294 266.04269708 -41 298 C-40.91395508 298.99837891 -40.82791016 299.99675781 -40.73925781 301.02539062 C-39.48022294 312.56708305 -36.55466998 323.67789443 -33.62451172 334.88964844 C-32.749229 338.25296259 -31.89943232 341.62206824 -31.05078125 344.9921875 C-30.48851406 347.16706406 -29.92476243 349.3415575 -29.359375 351.515625 C-29.11225769 352.50548401 -28.86514038 353.49534302 -28.61053467 354.51519775 C-25.38756088 366.62280776 -18.86161832 376.40572238 -11 386 C-10.319375 386.83273437 -9.63875 387.66546875 -8.9375 388.5234375 C-0.88877931 397.40577569 9.66859262 403.14593719 20 409 C20.68255859 409.38881348 21.36511719 409.77762695 22.06835938 410.17822266 C47.47709758 424.28154494 82.23435079 425.4784991 110.01855469 418.86083984 C124.45760011 414.69181969 136.70497794 406.63829648 147.50341797 396.39160156 C149.82713924 394.23088195 152.28446352 392.2457472 154.75 390.25 C155.62914062 389.53070312 156.50828125 388.81140625 157.4140625 388.0703125 C159.11788148 386.70622782 160.84175937 385.36677316 162.5859375 384.0546875 C168.16721054 379.81291999 172.48266211 375.29594971 176.7890625 369.765625 C178.88418635 367.14486937 181.10389843 364.78229425 183.4375 362.375 C189.92877186 355.29985712 194.71700044 346.56599913 199 338 C206.36203243 339.33094144 213.46914233 341.19835783 220.64453125 343.30078125 C249.07915114 351.4374555 276.55094258 357.53019759 306.07666016 359.66552734 C309.43671984 359.95197923 312.68677955 360.38527682 316 361 C317.18498196 380.35470528 308.33741391 400.39954955 299.72363281 417.2800293 C298.61658333 419.45402848 297.53392046 421.6390216 296.453125 423.82617188 C292.73892308 431.24944943 288.80648931 438.07626948 283.74707031 444.69458008 C282.26525852 446.649967 280.95235121 448.59500358 279.69140625 450.6953125 C272.90677593 461.76766304 263.9293707 470.48174896 254.68383789 479.48291016 C254.14408325 480.0086412 253.60432861 480.53437225 253.04821777 481.07603455 C252.03009892 482.06434619 251.00882165 483.04941916 249.98376465 484.03053284 C247.79180922 486.14708937 245.78794989 488.26698969 243.89111328 490.65527344 C242.12766696 492.84171011 240.54756792 494.29876174 238.26953125 495.91015625 C237.55756592 496.41901367 236.84560059 496.92787109 236.11206055 497.45214844 C235.35320557 497.98356445 234.59435059 498.51498047 233.8125 499.0625 C233.01948486 499.62614258 232.22646973 500.18978516 231.40942383 500.77050781 C228.94423091 502.52029896 226.47232544 504.26030667 224 506 C222.4969134 507.06572615 220.99429178 508.1321085 219.4921875 509.19921875 C212.55124053 514.12173927 212.55124053 514.12173927 209.32128906 516.36743164 C207.56486373 517.60272994 205.82476835 518.86129044 204.09277344 520.13061523 C196.38759299 525.67593947 188.63534461 529.81679881 179.875 533.5625 C178.58544474 534.1238117 177.29630636 534.68608203 176.00756836 535.24926758 C173.47672754 536.35236271 170.94248467 537.44696071 168.40478516 538.53417969 C165.57499034 539.75245647 162.75919897 540.99480832 159.94921875 542.2578125 C140.57365007 550.86658541 120.07093276 558.86782337 98.734375 559.81640625 C95.18513169 559.73961988 95.18513169 559.73961988 93 561 C91.3233385 561.11077288 89.6423803 561.15916636 87.9621582 561.17700195 C86.90958328 561.18983719 85.85700836 561.20267242 84.77253723 561.21589661 C83.62685776 561.22328354 82.48117828 561.23067047 81.30078125 561.23828125 C80.11840378 561.246353 78.93602631 561.25442474 77.71781921 561.26274109 C75.20341463 561.27660165 72.68899108 561.28731493 70.17456055 561.29516602 C66.3731555 561.31222776 62.57265484 561.35607871 58.77148438 561.40039062 C35.82953567 561.5556898 35.82953567 561.5556898 25.04165649 557.70748901 C22.60203808 556.86209546 20.14011154 556.11478002 17.66870117 555.36743164 C-15.57632078 545.24633322 -44.97520001 533.63872957 -71.30273438 510.45410156 C-73.61563054 508.47256969 -76.03076703 506.64208116 -78.45703125 504.80249023 C-91.77122778 494.66636921 -101.63095652 483.05487401 -111.28613281 469.41943359 C-112.93647217 467.08968102 -114.60266541 464.77215737 -116.2734375 462.45703125 C-131.00098354 441.96295072 -140.84578623 421.83568857 -147.5 397.4375 C-147.77525513 396.43864777 -148.05051025 395.43979553 -148.33410645 394.41067505 C-157.02490675 362.5871198 -163.38201585 329.44419185 -163.02880859 296.3425293 C-163.0081951 293.95083996 -163.02001306 291.55878393 -163.05322266 289.16723633 C-163.77398727 236.51400311 -150.77664336 185.11776276 -125.97393799 138.82159424 C-125.09273299 137.17344214 -124.22776438 135.51663429 -123.36474609 133.85888672 C-119.90666503 127.31006654 -115.91295359 121.28192678 -111.625 115.25 C-110.21064407 113.24109197 -108.7965907 111.2319709 -107.3828125 109.22265625 C-106.66125977 108.20059082 -105.93970703 107.17852539 -105.19628906 106.12548828 C-103.00726492 103.01033854 -100.83989022 99.88128565 -98.6796875 96.74609375 C-97.9789209 95.73063477 -97.2781543 94.71517578 -96.55615234 93.66894531 C-95.2286738 91.74408566 -93.9033225 89.8177564 -92.58056641 87.88964844 C-88.30366018 81.70927779 -83.76263695 75.813009 -79 70 C-78.19691406 69.01128906 -77.39382813 68.02257812 -76.56640625 67.00390625 C-75.57447266 65.79541016 -75.57447266 65.79541016 -74.5625 64.5625 C-73.90378906 63.75941406 -73.24507813 62.95632813 -72.56640625 62.12890625 C-72.18129883 61.66355469 -71.79619141 61.19820313 -71.39941406 60.71875 C-70.32834849 59.40327518 -69.27650196 58.07213077 -68.23339844 56.734375 C-62.034127 48.90920768 -55.1830294 41.87678806 -48.10791016 34.84716797 C-46.12818576 32.8781685 -44.15939246 30.89869273 -42.19140625 28.91796875 C-35.7917215 22.51191241 -29.3596712 16.37892035 -22.24072266 10.76928711 C-20.17628463 9.13919533 -18.20610972 7.44495344 -16.25 5.6875 C-11.02710666 1.22498015 -7.09548083 -1.78585489 0 0 Z " fill="#FFFFFF" transform="translate(426,414)"/>
<path d="M0 0 C14.5246232 4.39116515 27.16255301 13.56684086 39.42871094 22.20703125 C42.13446636 24.09376386 44.86363555 25.94154367 47.6015625 27.78125 C56.76626421 33.94199228 65.77907819 40.14960833 74.35546875 47.109375 C77.06667037 49.29663976 79.84815788 51.35623305 82.67578125 53.390625 C93.17315355 61.01094714 102.67316789 69.19931767 111.8125 78.375 C112.31642273 78.87897308 112.82034546 79.38294617 113.33953857 79.90219116 C124.96963619 91.58635899 134.52028572 104.56667329 144 118 C144.58120605 118.81404297 145.16241211 119.62808594 145.76123047 120.46679688 C152.88280749 130.49252819 159.17418604 140.68391371 164.5625 151.75 C165.03888916 152.7181665 165.51527832 153.68633301 166.00610352 154.68383789 C185.25257032 195.69938329 188.91035859 246.70833038 174.12939453 289.52172852 C164.37210781 315.43746648 151.88579803 343.59502389 133.38085938 364.421875 C131.48654749 366.58680286 129.78789198 368.88697736 128.0625 371.1875 C118.19268231 383.33657643 106.93162382 393.07955437 93.92822266 401.70800781 C91.26237579 403.49423997 88.67000288 405.37993704 86.0625 407.25 C65.10152055 421.69857451 43.33652252 435.01091998 19.17382812 443.24316406 C17.26204822 443.90876578 15.37106372 444.63347522 13.484375 445.3671875 C9.70232143 446.78325872 5.89833344 447.95906643 2 449 C1.14100098 449.22993652 0.28200195 449.45987305 -0.60302734 449.69677734 C-69.27746598 466.90908786 -144.55553836 447.48959317 -206.23210144 416.81311035 C-211.46986498 414.2169751 -216.80069225 411.91538117 -222.19970703 409.67236328 C-235.02721142 404.32606067 -246.44303196 397.47238976 -258.06347656 389.89208984 C-262.81618239 386.82977939 -267.6581909 383.91856019 -272.5 381 C-281.38700719 375.61750334 -290.21050092 370.13994655 -299.00634766 364.60986328 C-303.97463861 361.49245671 -308.95855722 358.4094068 -313.9921875 355.3984375 C-325.34821575 348.60431266 -336.21813143 341.4806931 -346.83837891 333.58789062 C-350.53605113 330.87164258 -354.30257707 328.25401022 -358.0625 325.625 C-363.83652708 321.57362903 -369.51412484 317.4387138 -375 313 C-373.48825538 297.72946578 -360.90747037 284.99118633 -351.82373047 273.35986328 C-349.52679518 270.38768437 -347.32748951 267.35515485 -345.125 264.3125 C-336.56858754 252.93673325 -336.56858754 252.93673325 -331 249 C-326.83835109 249.34209534 -324.15933811 250.9561004 -320.75390625 253.28125 C-319.75915283 253.95389893 -318.76439941 254.62654785 -317.73950195 255.31958008 C-316.69109131 256.03911865 -315.64268066 256.75865723 -314.5625 257.5 C-312.38055681 258.97317252 -310.19826748 260.4458325 -308.015625 261.91796875 C-306.01008864 263.27816231 -304.00484293 264.63878458 -302 266 C-293.34503052 271.87413801 -284.54010584 276.86680708 -275.24072266 281.63183594 C-268.71371523 285.0117054 -262.42163444 288.67037053 -256.1875 292.5625 C-255.30457275 293.11317139 -254.42164551 293.66384277 -253.51196289 294.23120117 C-249.66523338 296.64702337 -245.84385056 299.09046607 -242.07421875 301.625 C-230.77939201 309.12862898 -218.59224008 314.353207 -206.13818359 319.6484375 C-203.49311195 320.78762504 -200.87782598 321.96735245 -198.26953125 323.1875 C-175.46498031 333.69970253 -151.54919638 339.5459016 -126.5625 341.1875 C-125.66949188 341.24652496 -124.77648376 341.30554993 -123.85641479 341.36636353 C-108.08904257 342.34537445 -93.4222694 340.94810935 -77.88378906 338.26342773 C-75.27115788 337.81612241 -72.65547926 337.3913132 -70.0390625 336.96679688 C-54.83542746 334.40860039 -41.45000375 329.62131022 -27.6875 322.625 C-26.74382568 322.14877197 -25.80015137 321.67254395 -24.82788086 321.18188477 C-19.06125857 318.21395389 -13.73151667 315.04868361 -8.6328125 311.015625 C-6.57490117 309.44013206 -4.55442561 308.04748229 -2.3671875 306.671875 C6.12650923 301.32426734 12.71131499 295.94014838 19 288 C19.44754639 287.44884521 19.89509277 286.89769043 20.35620117 286.32983398 C25.01945278 280.39654436 28.57001588 273.91817271 32.1875 267.3125 C33.40958733 265.09994608 34.63222338 262.88769514 35.85546875 260.67578125 C36.38809326 259.70552002 36.92071777 258.73525879 37.46948242 257.7355957 C38.46994612 255.9474005 39.5156522 254.18358978 40.60986328 252.45117188 C51.35341135 233.50750791 48.85821487 203.9646209 43.80078125 183.71484375 C39.56945249 169.06679779 30.55071332 157.65087831 20 147 C18.90700042 145.65362324 17.82262149 144.3001671 16.75 142.9375 C12.87541854 138.39488725 7.95090008 135.13608473 3.06542969 131.76733398 C-1.89980869 128.30057394 -1.89980869 128.30057394 -3 125 C-3.00636292 122.93809509 -3.00636292 122.93809509 -2.83813477 120.53881836 C-2.77799698 119.63614731 -2.71785919 118.73347626 -2.65589905 117.80345154 C-2.58511642 116.82546097 -2.5143338 115.8474704 -2.44140625 114.83984375 C-2.37340317 113.82136856 -2.30540009 112.80289337 -2.2353363 111.7535553 C-1.94460594 107.4020592 -1.64023186 103.05154457 -1.33666992 98.70092773 C-0.17209997 81.85639281 0.47696632 65.2467116 -0.5 48.375 C-0.99569323 38.51899508 -1.11279814 28.67853506 -1.125 18.8125 C-1.12874634 17.74875153 -1.12874634 17.74875153 -1.13256836 16.66351318 C-1.13845594 14.63636109 -1.13579691 12.6091897 -1.1328125 10.58203125 C-1.13168457 9.40874268 -1.13055664 8.2354541 -1.12939453 7.02661133 C-1.02094203 4.48984596 -0.74628608 2.41116361 0 0 Z " fill="#FFFFFF" transform="translate(795,302)"/>
<path d="M0 0 C4.72341492 0.77768633 9.43240339 1.05052309 14.21484375 1.0703125 C26.63736946 1.14646425 37.54413721 2.81407535 49.45629883 6.34350586 C57.32127224 8.65177555 64.99647502 10.13198551 73.15307617 10.93701172 C85.72164272 12.31822941 96.44484361 20.42911884 104.33984375 30.00390625 C107.98086667 34.38170086 111.93707935 38.52827032 116.57958984 41.84033203 C124.98908021 47.88116169 128.29076735 54.61918087 131.875 63.9375 C132.40587868 65.25836126 132.93972411 66.57803408 133.4765625 67.89648438 C133.86916512 68.86200478 133.86916512 68.86200478 134.2696991 69.84703064 C134.52874527 70.48403397 134.78779144 71.12103729 135.0546875 71.77734375 C135.31167923 72.41325943 135.56867096 73.04917511 135.83345032 73.70436096 C140.30052857 84.73093936 146.2526451 94.04700008 152.94885254 103.82513428 C162.17421004 117.33097671 170.55413444 130.75537884 177.71533203 145.47851562 C178.97702236 147.95490059 180.34178706 150.32394693 181.77734375 152.703125 C189.39814881 165.4710334 194.6994416 178.87167255 199.9375 192.75 C200.4851149 194.1938205 200.4851149 194.1938205 201.04379272 195.66680908 C205.45034502 207.34312239 209.35743522 219.02222071 212.50057983 231.10101318 C213.20646986 233.78507752 213.96945464 236.45221386 214.73046875 239.12109375 C215.21718468 240.89294413 215.70290276 242.66506899 216.1875 244.4375 C216.43435547 245.29408203 216.68121094 246.15066406 216.93554688 247.03320312 C220.99636975 262.07449106 221.31069921 277.81456872 221.265625 293.30078125 C221.26698061 294.99537715 221.26892845 296.68997266 221.27142334 298.38456726 C221.27434153 301.91144567 221.27019127 305.43822159 221.26074219 308.96508789 C221.24944457 313.38740048 221.25609747 317.80947028 221.26756382 322.23177433 C221.33298778 351.43402903 221.38270862 380.07591935 213.5625 408.4375 C213.02158997 410.46665155 212.4812349 412.49595112 211.94140625 414.52539062 C205.17611823 439.62475183 196.99389892 463.35388498 184 486 C183.59539551 486.72058594 183.19079102 487.44117188 182.77392578 488.18359375 C177.25033744 498.0012126 170.83172955 507.05499189 164 516 C163.47301514 516.70721191 162.94603027 517.41442383 162.40307617 518.14306641 C158.17369486 523.73518803 153.55919588 528.71375616 148.5625 533.625 C147.85029297 534.3365625 147.13808594 535.048125 146.40429688 535.78125 C142.98009747 539.17745867 139.50894164 542.46821278 135.85546875 545.6171875 C132.84034295 548.21700774 130.06732873 550.93997918 127.33520508 553.83227539 C121.28631825 560.19604343 114.80976122 565.7627371 107.8125 571.0625 C106.60255371 571.990625 106.60255371 571.990625 105.36816406 572.9375 C97.44803011 578.80141448 89.15512878 584.28856619 79 583 C75.89347246 582.24642577 72.93353994 581.23467803 69.9375 580.125 C68.64755127 579.65743286 68.64755127 579.65743286 67.33154297 579.18041992 C49.57486805 572.61775446 32.7451092 564.65349304 16.29541016 555.29980469 C14.35701703 554.20216535 12.40901038 553.12900406 10.44921875 552.0703125 C2.29465989 547.55560309 -4.80704474 541.88417789 -12 536 C-10.83793751 532.51381254 -10.40941384 532.43200384 -7.375 530.6875 C0.24310056 525.80658661 6.52757269 519.26808864 13 513 C13.84328857 512.18958252 13.84328857 512.18958252 14.70361328 511.36279297 C20.76451776 505.52208483 26.41640374 499.50598191 31.66015625 492.90625 C33.84970492 490.18667702 36.10148213 487.54236076 38.39038086 484.90698242 C47.7134173 474.16864519 56.07696319 463.00161513 64.04052734 451.22436523 C67.58523206 446.00285836 71.24619234 440.90097446 75.0625 435.875 C84.90537756 422.86510045 94.08905887 409.89766966 101.69580078 395.43188477 C102.66603604 393.62272838 103.66988635 391.83151934 104.69091797 390.05053711 C109.08222885 382.26947338 112.11895194 374.66560996 114.5 366.0625 C114.7764888 365.0749472 114.7764888 365.0749472 115.05856323 364.06744385 C118.66634409 351.00706541 120.98104433 337.75252982 123.0625 324.375 C123.29066406 322.94886887 123.29066406 322.94886887 123.5234375 321.493927 C125.71653914 307.57768111 126.42522326 294.07471275 126 280 C125.97573944 279.14011475 125.95147888 278.28022949 125.92648315 277.39428711 C125.7751288 272.35784664 125.56431728 267.32645038 125.31030273 262.29418945 C125.18694748 259.80133431 125.08053044 257.30810275 124.97460938 254.81445312 C124.27049604 239.68170455 122.72103772 224.44899293 117.9375 210 C117.64077393 209.08686035 117.34404785 208.1737207 117.03833008 207.23291016 C114.04313118 198.43998707 109.83650001 190.49997627 105.31152344 182.41796875 C103.45947452 179.00346903 101.78107758 175.51228393 100.09228516 172.01489258 C95.47970792 162.07288938 95.47970792 162.07288938 89.05078125 153.29296875 C87.26258913 151.29359966 86.01270862 149.43704763 84.60546875 147.17578125 C80.82446124 141.78382926 76.74952144 136.96891221 69.99603271 135.59118652 C62.59815513 134.65643002 55.12942582 134.77360555 47.69140625 135.03125 C29.21148352 135.63209127 14.42850312 130.21472135 -2.11523438 122.50585938 C-16.34222855 115.9201139 -29.93843162 113.69174449 -45.46575928 112.77978516 C-75.11638506 110.96879826 -106.20746953 106.16246541 -128 84 C-129.19109375 82.86498047 -129.19109375 82.86498047 -130.40625 81.70703125 C-139.8024562 72.63424519 -145.29026726 63.54138007 -145.6640625 50.26953125 C-145.68946732 47.9144551 -145.68326515 45.56325316 -145.65185547 43.20825195 C-145.62491108 40.80456734 -145.65179108 38.40550136 -145.68359375 36.00195312 C-145.70259067 27.84277566 -145.58275182 20.49172618 -140 14 C-130.62075056 5.11757806 -120.75086237 4.54938436 -108.25 4.75 C-106.29900391 4.75773437 -106.29900391 4.75773437 -104.30859375 4.765625 C-99.05557739 4.80890423 -94.14142883 4.87992997 -89 6 C-83.82512721 6.43572214 -78.65129602 6.67043967 -73.46289062 6.87841797 C-71.16008478 6.99209732 -68.87462037 7.17757672 -66.578125 7.37890625 C-54.7834939 8.16034459 -45.24828666 5.09372882 -34.15966797 1.22583008 C-22.14628069 -2.86893174 -12.27969365 -3.66236477 0 0 Z M-140 22 C-140 24.97 -140 27.94 -140 31 C-139.34 31 -138.68 31 -138 31 C-138 28.03 -138 25.06 -138 22 C-138.66 22 -139.32 22 -140 22 Z M-138.75 42.6875 C-140.18991433 45.35134151 -140.24862931 47.01644824 -140 50 C-137.03 50.495 -137.03 50.495 -134 51 C-133.67 47.7 -133.34 44.4 -133 41 C-136.92528402 40.53724295 -136.92528402 40.53724295 -138.75 42.6875 Z M-135 59 C-135.33 59.66 -135.66 60.32 -136 61 C-134.27561381 65.37523283 -134.27561381 65.37523283 -130.8125 68.375 C-130.214375 68.58125 -129.61625 68.7875 -129 69 C-128.34 68.34 -127.68 67.68 -127 67 C-127.35299007 63.55834679 -128.04581692 61.93127462 -130 59 C-132.58380177 58.74969023 -132.58380177 58.74969023 -135 59 Z M-124 74 C-123.63088042 76.67611698 -123.15144437 77.8431469 -121.25 79.8125 C-118.3995411 81.31690887 -117.01911587 80.92250763 -114 80 C-115.57577814 76.88509913 -115.57577814 76.88509913 -118 74 C-121.16926564 73.49830585 -121.16926564 73.49830585 -124 74 Z M-27.19140625 82.05078125 C-32.82479678 82.43662992 -35.75639346 84.55206969 -40 88 C-40.13478487 91.33054374 -40.13478487 91.33054374 -39 95 C-33.07321203 100.70508767 -25.21405166 102.04665134 -17.3125 102.375 C-13.75670733 102.29104378 -12.06734226 102.03301091 -8.8125 100.4375 C-6.77440714 98.05100771 -6.77440714 98.05100771 -6.3125 94.75 C-7.22573366 89.76872547 -9.56276261 86.65095164 -13 83 C-17.20056501 80.89971749 -22.58758082 81.94409724 -27.19140625 82.05078125 Z M-108 85 C-107.80528889 86.94999129 -107.80528889 86.94999129 -107 89 C-105.23377831 90.42481768 -105.23377831 90.42481768 -103 91 C-100.80252869 90.70194993 -100.80252869 90.70194993 -99 90 C-100.78094828 86.30787351 -100.78094828 86.30787351 -104.0625 84.125 C-106.08247889 83.83129318 -106.08247889 83.83129318 -108 85 Z M-85 94 C-86.98 94.99 -86.98 94.99 -89 96 C-88.34 96.66 -87.68 97.32 -87 98 C-84.39719432 97.67958603 -84.39719432 97.67958603 -82 97 C-82.99 96.01 -83.98 95.02 -85 94 Z " fill="#FFFFFF" transform="translate(558,44)"/>
<path d="M0 0 C2.93114691 14.8991593 3.52480891 29.40226218 3.4375 44.5625 C3.43379395 45.71396515 3.43008789 46.8654303 3.42626953 48.05178833 C3.30731791 73.98481968 1.88288073 104.23423854 -10 128 C-12.28736346 128.96525568 -14.53208475 129.82064586 -16.875 130.625 C-17.51308594 130.85445312 -18.15117188 131.08390625 -18.80859375 131.3203125 C-21.67276705 132.32486598 -23.94250743 133 -27 133 C-28.33203125 131.77734375 -28.33203125 131.77734375 -29.8125 129.9375 C-33.3988958 125.64758945 -37.16904629 121.56998031 -41 117.5 C-48.33077299 109.68665183 -48.33077299 109.68665183 -51.5 106 C-55.44485892 101.41435182 -59.61131601 97.03408249 -63.75268555 92.62670898 C-67.00648193 89.15849013 -70.19469898 85.65435263 -73.3125 82.0625 C-79.33548102 75.32700366 -86.06884838 69.29575947 -92.68457031 63.15380859 C-96.59674268 59.51471279 -100.48502114 55.85028398 -104.375 52.1875 C-105.09429688 51.51187012 -105.81359375 50.83624023 -106.5546875 50.14013672 C-107.225 49.50994629 -107.8953125 48.87975586 -108.5859375 48.23046875 C-109.46838135 47.40131958 -109.46838135 47.40131958 -110.36865234 46.55541992 C-110.90699707 46.04213135 -111.4453418 45.52884277 -112 45 C-112.56541504 44.47962158 -113.13083008 43.95924316 -113.71337891 43.4230957 C-115 42 -115 42 -115 40 C-85.81557776 23.5516655 -54.99344201 8.97611569 -22.0625 1.9375 C-21.11020508 1.73326416 -20.15791016 1.52902832 -19.17675781 1.31860352 C-12.73174165 0.05769628 -6.55791177 -0.22142774 0 0 Z " fill="#CCCCCC" transform="translate(669,284)"/>
<path d="M0 0 C0.45101074 1.36427124 0.45101074 1.36427124 0.91113281 2.75610352 C7.2114515 21.69931197 13.85155455 39.71317632 24 57 C24.3702832 57.63454102 24.74056641 58.26908203 25.12207031 58.92285156 C27.73614422 63.34530897 30.45569259 67.4766764 33.875 71.3125 C36.34987923 74.44249433 36.89129494 76.03226536 37 80 C35.15625 82.4921875 35.15625 82.4921875 32.5 84.875 C29.33588316 87.8193865 26.28487136 90.69296526 23.5 94 C20.93306199 97.02168693 18.19683609 99.71824515 15.3125 102.4375 C10.87270657 106.80284567 7.34693336 111.50681336 3.8125 116.625 C-7.20443326 132.57275904 -7.20443326 132.57275904 -11.4296875 133.578125 C-14 133 -14 133 -16.04296875 130.44921875 C-16.77453155 129.20499275 -17.4876946 127.94986083 -18.1875 126.6875 C-21.29444345 121.36745776 -24.50842907 116.19748364 -28.0546875 111.15625 C-43.83101547 88.63901664 -56.25720572 64.5194372 -65.0625 38.4375 C-65.47435547 37.22602295 -65.88621094 36.0145459 -66.31054688 34.76635742 C-70.4817714 21.64978261 -70.4817714 21.64978261 -69 15 C-66.8671875 12.55859375 -66.8671875 12.55859375 -64 11 C-63.09507812 10.49597656 -62.19015625 9.99195313 -61.2578125 9.47265625 C-41.44844011 0.55596868 -21.48948285 -0.80675545 0 0 Z " fill="#CCCCCC" transform="translate(325,375)"/>
<path d="M0 0 C3.37376593 0.52744285 5.64060653 1.14133699 8.3203125 3.265625 C8.92858887 3.73718018 9.53686523 4.20873535 10.16357422 4.69458008 C10.81084473 5.20786865 11.45811523 5.72115723 12.125 6.25 C20.42179732 12.65691722 29.01102199 18.56056643 37.69604492 24.42480469 C40.1024227 26.07002557 42.47855926 27.7539442 44.85546875 29.44140625 C50.24797055 33.22750905 55.82516512 36.6768599 61.4375 40.125 C75.91991831 49.10950457 89.99277128 58.54884398 103.54541016 68.88769531 C107.96700243 72.26030763 112.48382197 75.41768346 117.1796875 78.40234375 C119.42047617 80.36904454 119.97964891 82.23661939 121 85 C98.52574967 98.33124093 72.5321897 100.08962748 47.0625 102.5 C46.38378342 102.56529907 45.70506683 102.63059814 45.00578308 102.69787598 C27.30684812 104.3993726 9.78397799 105.41255135 -8 105 C-12.56199206 92.36219439 -12.5081483 78.42128651 -12.5625 65.125 C-12.5671225 64.2649234 -12.571745 63.4048468 -12.57650757 62.51870728 C-12.58766536 49.94359105 -11.51205795 37.97279606 -8.8125 25.6875 C-8.59365646 24.67831512 -8.59365646 24.67831512 -8.37039185 23.64874268 C-6.50596862 15.27466246 -3.88454147 7.64951298 0 0 Z " fill="#CCCCCC" transform="translate(414,631)"/>
<path d="M0 0 C0.67055285 2.93666226 1.33659053 5.87422359 2 8.8125 C2.19078125 9.64587891 2.3815625 10.47925781 2.578125 11.33789062 C2.75859375 12.14033203 2.9390625 12.94277344 3.125 13.76953125 C3.29257812 14.50792236 3.46015625 15.24631348 3.6328125 16.00708008 C4 18 4 18 4 21 C1.94091797 22.49462891 1.94091797 22.49462891 -0.8828125 24.1015625 C-7.01874969 27.84988381 -11.86456918 32.24956426 -16.875 37.375 C-17.73996094 38.252771 -18.60492188 39.13054199 -19.49609375 40.03491211 C-31.8068007 52.73204867 -41.49948526 66.75978822 -50.66699219 81.83056641 C-51.83649027 83.73389241 -53.03601693 85.61051885 -54.2578125 87.48046875 C-61.98972489 99.64895818 -67.6725527 112.93228506 -73.63061523 126.0300293 C-74.71112487 128.37347727 -75.84594199 130.69188398 -77 133 C-95.48 133 -113.96 133 -133 133 C-133 123.98210599 -133 123.98210599 -130.578125 118.875 C-130.0529126 117.76358643 -129.5277002 116.65217285 -128.98657227 115.50708008 C-128.41350342 114.34974365 -127.84043457 113.19240723 -127.25 112 C-126.95954803 111.40383881 -126.66909607 110.80767761 -126.36984253 110.19345093 C-121.66218647 100.56416178 -116.26931949 91.92615947 -109.39453125 83.70678711 C-107.83844308 81.80226813 -106.37353416 79.84371285 -104.91015625 77.8671875 C-102.68962175 74.88440666 -100.38842554 72.05755495 -97.875 69.3125 C-97.11445313 68.47976562 -96.35390625 67.64703125 -95.5703125 66.7890625 C-94.72210938 65.86867188 -93.87390625 64.94828125 -93 64 C-91.97642034 62.88294275 -90.95298975 61.76574889 -89.9296875 60.6484375 C-88.87014243 59.49446951 -87.81024998 58.34082037 -86.75 57.1875 C-86.25483887 56.64843018 -85.75967773 56.10936035 -85.24951172 55.55395508 C-70.84855997 39.95494096 -54.89770187 26.95722514 -36.71801758 16.06787109 C-35.22015176 15.1368401 -33.78114911 14.1124173 -32.35546875 13.07421875 C-27.12172963 9.83892716 -21.48088202 7.61674361 -15.8125 5.25 C-14.62462891 4.74339844 -13.43675781 4.23679687 -12.21289062 3.71484375 C-3.38638182 0 -3.38638182 0 0 0 Z " fill="#FFFFFF" transform="translate(403,94)"/>
<path d="M0 0 C2.57359424 1.2507668 3.48600532 2.66761712 5.015625 5.07421875 C5.74458984 6.19183594 5.74458984 6.19183594 6.48828125 7.33203125 C10.34163934 14.21669771 12.22648065 21.2726779 14.140625 28.88671875 C14.41326172 29.95212891 14.68589844 31.01753906 14.96679688 32.11523438 C15.6339497 34.72532351 16.29590793 37.33661349 16.953125 39.94921875 C-7.98197852 48.00057171 -30.8231777 51.35700352 -57.046875 50.94921875 C-57.046875 49.95921875 -57.046875 48.96921875 -57.046875 47.94921875 C-55.68920898 46.61816406 -55.68920898 46.61816406 -53.79296875 45.27734375 C-53.10267578 44.7771875 -52.41238281 44.27703125 -51.70117188 43.76171875 C-50.96962891 43.24609375 -50.23808594 42.73046875 -49.484375 42.19921875 C-44.46108793 38.6328228 -39.88695685 35.02200018 -35.62329102 30.55981445 C-34.00245529 28.90383594 -32.30751501 27.39213778 -30.546875 25.88671875 C-26.46457928 22.36941913 -22.53976442 18.69636795 -18.609375 15.01171875 C-17.30221801 13.7928243 -15.99492869 12.57407176 -14.6875 11.35546875 C-12.51504632 9.3290435 -10.36066139 7.28954379 -8.21875 5.23046875 C-7.44015625 4.49828125 -6.6615625 3.76609375 -5.859375 3.01171875 C-5.20582031 2.38394531 -4.55226563 1.75617187 -3.87890625 1.109375 C-2.046875 -0.05078125 -2.046875 -0.05078125 0 0 Z " fill="#CCCCCC" transform="translate(728.046875,581.05078125)"/>
</svg>
