<svg xmlns="http://www.w3.org/2000/svg" width="470" height="493" viewBox="0 0 470 493" version="1.1">
	<path d="M 27 73.500 L 27 109 62.500 109 L 98 109 98 73.500 L 98 38 62.500 38 L 27 38 27 73.500 M 129 43 L 129 48 134.500 48 L 140 48 140 53 L 140 58 134.500 58 L 129 58 129 68.500 L 129 79 124 79 L 119 79 119 73.633 L 119 68.267 114 68.267 L 109 68.267 109 73.633 L 109 79 114 79 L 119 79 119 84 L 119 89 114 89 L 109 89 109 99 L 109 109 114 109 L 119 109 119 99 L 119 89 129.500 89 L 140 89 140 84 L 140 79 145 79 L 150 79 150 84 L 150 89 155 89 L 160 89 160 94 L 160 99 155 99 L 150 99 150 109.500 L 150 120 145 120 L 140 120 140 125 L 140 130 129.500 130 L 119 130 119 125 L 119 120 103.500 120 L 88 120 88 125 L 88 130 98.500 130 L 109 130 109 135 L 109 140 98.448 140 L 87.895 140 88.198 145.250 L 88.500 150.500 108.500 150.500 L 128.500 150.500 128.804 145.200 L 129.108 139.899 134.304 140.200 L 139.500 140.500 139.785 150.750 L 140.070 161 155.035 161 L 170 161 170 166 L 170 171 185.500 171 L 201 171 201 176 L 201 181 206 181 L 211 181 211 171 L 211 161 206 161 L 201 161 201 156 L 201 151 196 151 L 191 151 191 156 L 191 161 180.500 161 L 170 161 170 156.035 L 170 151.070 180.250 150.785 L 190.500 150.500 190.802 145.250 L 191.105 140 196.052 140 L 201 140 201 135 L 201 130 206 130 L 211 130 211 125 L 211 120 206 120 L 201 120 201 104.500 L 201 89 191 89 L 181 89 181 93.948 L 181 98.895 175.750 99.198 L 170.500 99.500 170.224 114.750 L 169.948 130 164.974 130 L 160 130 160 114.500 L 160 99 165 99 L 170 99 170 94 L 170 89 165 89 L 160 89 160 73.500 L 160 58 155 58 L 150 58 150 53 L 150 48 145 48 L 140 48 140 43 L 140 38 134.500 38 L 129 38 129 43 M 160 43 L 160 48 165 48 L 170 48 170 57.948 L 170 67.895 175.250 68.198 L 180.500 68.500 180.802 73.750 L 181.105 79 201.552 79 L 222 79 222 84 L 222 89 216.500 89 L 211 89 211 99 L 211 109 216.500 109 L 222 109 222 99 L 222 89 232 89 L 242 89 242 94 L 242 99 237.052 99 L 232.105 99 231.802 104.250 L 231.500 109.500 226.750 109.805 L 222 110.110 222 115.055 L 222 120 226.974 120 L 231.948 120 232.224 135.250 L 232.500 150.500 237.252 150.500 L 242.003 150.500 242.002 160.750 L 242 171 237 171 L 232 171 232 166 L 232 161 227 161 L 222 161 222 171 L 222 181 232 181 L 242 181 242 191.500 L 242 202 232 202 L 222 202 222 197 L 222 192 216.445 192 L 210.890 192 211.195 196.750 L 211.500 201.500 216.750 201.802 L 222 202.105 222 207 L 222 211.895 216.750 212.198 L 211.500 212.500 211.195 217.250 L 210.890 222 216.445 222 L 222 222 222 217 L 222 212 227 212 L 232 212 232 227.500 L 232 243 242.500 243 L 253 243 253 248 L 253 253 237.500 253 L 222 253 222 258 L 222 263 232 263 L 242 263 242 268.500 L 242 274 237 274 L 232 274 232 279 L 232 284 227 284 L 222 284 222 289 L 222 294 216.500 294 L 211 294 211 289 L 211 284 206 284 L 201 284 201 279 L 201 274 196 274 L 191 274 191 279 L 191 284 180.500 284 L 170 284 170 289 L 170 294 165 294 L 160 294 160 304.500 L 160 315 155 315 L 150 315 150 320 L 150 325 145 325 L 140 325 140 320 L 140 315 134.500 315 L 129 315 129 320 L 129 325 103.465 325 L 77.930 325 78.215 314.844 L 78.500 304.688 83 304.686 L 87.500 304.684 87.802 309.842 L 88.105 315 103.500 315 L 118.895 315 119.198 309.826 L 119.500 304.653 124.250 304.709 L 129 304.765 129 299.383 L 129 294 124 294 L 119 294 119 289 L 119 284 124 284 L 129 284 129 279 L 129 274 134.500 274 L 140 274 140 289.555 L 140 305.110 144.750 304.805 L 149.500 304.500 149.776 289.271 L 150.052 274.041 170.276 273.771 L 190.500 273.500 191 268.500 L 191.500 263.500 201.250 263.214 L 211 262.928 211 257.964 L 211 253 206 253 L 201 253 201 243 L 201 233 196 233 L 191 233 191 238 L 191 243 186 243 L 181 243 181 238.055 L 181 233.110 185.750 232.805 L 190.500 232.500 190.802 227.250 L 191.105 222 196.052 222 L 201 222 201 212 L 201 202 196 202 L 191 202 190.999 196.750 L 190.999 191.500 196.055 191.850 L 201.111 192.201 200.806 186.850 L 200.500 181.500 185.500 181.500 L 170.500 181.500 170.224 196.750 L 169.948 212 175.474 212 L 181 212 181 222.500 L 181 233 175.500 233 L 170 233 170 238 L 170 243 175.500 243 L 181 243 181 247.948 L 181 252.895 175.750 253.198 L 170.500 253.500 170 258.695 L 169.500 263.890 149.500 263.695 L 129.500 263.500 129.198 258.250 L 128.895 253 123.948 253 L 119 253 119 263.500 L 119 274 114 274 L 109 274 109 284 L 109 294 103.500 294 L 98 294 98 289 L 98 284 88 284 L 78 284 78 279 L 78 274 88 274 L 98 274 98 269 L 98 264 88 264 L 78 264 78 269 L 78 274 73 274 L 68 274 68 253.500 L 68 233 73.052 233 L 78.105 233 77.802 227.750 L 77.500 222.500 73 222.500 L 68.500 222.500 68.198 227.750 L 67.895 233 52.448 233 L 37 233 37 222.500 L 37 212 32 212 L 27 212 27 227.500 L 27 243 42 243 L 57 243 57 248 L 57 253 52 253 L 47 253 47 258.500 C 47 261.525, 46.663 263.947, 46.250 263.882 C 45.837 263.816, 41.337 263.816, 36.250 263.882 L 27 264 27 279 L 27 294 32 294 L 37 294 37 299.383 L 37 304.765 41.750 304.709 L 46.500 304.653 46.802 309.826 L 47.105 315 42.052 315 L 37 315 37 320 L 37 325 47 325 L 57 325 57 329.945 L 57 334.890 52.250 335.195 L 47.500 335.500 47.198 340.750 L 46.895 346 67.448 346 L 88 346 88 351 L 88 356 93 356 L 98 356 98 351 L 98 346 93 346 L 88 346 88 340.500 L 88 335 92.948 335 L 97.895 335 98.198 340.250 L 98.500 345.500 103.750 345.802 L 109 346.105 109 351.052 L 109 356 119 356 L 129 356 129 351 L 129 346 119 346 L 109 346 109 340.500 L 109 335 129.500 335 L 150 335 150 340.500 L 150 346 155 346 L 160 346 160 351 L 160 356 155 356 L 150 356 150 366 L 150 376 155 376 L 160 376 160 366 L 160 356 164.974 356 L 169.948 356 170.224 371.250 L 170.500 386.500 175.750 386.802 L 181 387.105 181 392.052 L 181 397 175.500 397 L 170 397 170 402 L 170 407 180.500 407 L 191 407 191 402 L 191 397 196 397 L 201 397 201 392 L 201 387 206 387 L 211 387 211 397 L 211 407 216.500 407 L 222 407 222 417.500 L 222 428 227 428 L 232 428 232 443.555 L 232 459.110 236.750 458.805 L 241.500 458.500 241.804 453.200 L 242.108 447.899 247.304 448.200 L 252.500 448.500 252.803 453.767 L 253.106 459.034 278.303 458.767 L 303.500 458.500 303.802 453.250 L 304.105 448 314.052 448 L 324 448 324 443 L 324 438 319 438 L 314 438 314 433 L 314 428 324.500 428 L 335 428 335 433 L 335 438 345 438 L 355 438 355 442.974 L 355 447.948 339.750 448.224 L 324.500 448.500 324.500 453.500 L 324.500 458.500 339.750 458.776 L 355 459.052 355 453.526 L 355 448 359.948 448 L 364.895 448 365.198 453.250 L 365.500 458.500 380.750 458.776 L 396 459.052 396 448.578 L 396 438.105 401.250 437.802 L 406.500 437.500 406.500 433 L 406.500 428.500 401.250 428.198 L 396 427.895 396 432.948 L 396 438 391 438 L 386 438 386 433 L 386 428 365.500 428 L 345 428 345 423 L 345 418 324.500 418 L 304 418 304 423 L 304 428 299 428 L 294 428 294 423 L 294 418 278.500 418 L 263 418 263 423.052 L 263 428.105 257.750 427.802 L 252.500 427.500 252.195 422.750 L 251.890 418 241.945 418 L 232 418 232 412.500 L 232 407 227 407 L 222 407 222 391.500 L 222 376 227 376 L 232 376 232 386.500 L 232 397 237 397 L 242 397 242 401.948 L 242 406.895 247.250 407.198 L 252.500 407.500 252.805 412.250 L 253.110 417 258.055 417 L 263 417 263 407 L 263 397 257.500 397 L 252 397 252 386.500 L 252 376 242 376 L 232 376 232 370.965 L 232 365.930 242.250 366.215 L 252.500 366.500 252.805 371.250 L 253.110 376 258.055 376 L 263 376 263 381.500 L 263 387 268 387 L 273 387 273 392 L 273 397 278 397 L 283 397 283 392.052 L 283 387.105 288.250 386.802 L 293.500 386.500 293.802 381.250 L 294.105 376 304.052 376 L 314 376 314 371 L 314 366 309 366 L 304 366 304 361 L 304 356 314 356 L 324 356 324 345.500 L 324 335 329.500 335 L 335 335 335 345.500 L 335 356 340 356 L 345 356 345 351 L 345 346 360.500 346 L 376 346 376 350.948 L 376 355.895 370.750 356.198 L 365.500 356.500 365.195 361.250 L 364.890 366 354.945 366 L 345 366 345 371 L 345 376 350 376 L 355 376 355 381.500 L 355 387 345.035 387 L 335.070 387 334.785 376.750 L 334.500 366.500 329.500 366.500 L 324.500 366.500 324.197 371.197 L 323.895 375.895 319.197 376.197 L 314.500 376.500 314.198 381.750 L 313.895 387 308.948 387 L 304 387 304 392 L 304 397 299 397 L 294 397 294 407 L 294 417 299 417 L 304 417 304 407 L 304 397 309 397 L 314 397 314 402 L 314 407 319 407 L 324 407 324 402 L 324 397 319 397 L 314 397 314 392 L 314 387 324.500 387 L 335 387 335 392 L 335 397 345 397 L 355 397 355 407 L 355 417 381 417 L 407 417 407 396.445 L 407 375.890 411.750 376.195 L 416.500 376.500 416.785 386.750 L 417.070 397 422.035 397 L 427 397 427 392.035 L 427 387.070 437.250 386.785 L 447.500 386.500 447.776 371.250 L 448.052 356 437.526 356 L 427 356 427 361 L 427 366 422 366 L 417 366 417 361 L 417 356 406.500 356 L 396 356 396 361 L 396 366 386 366 L 376 366 376 361 L 376 356 381 356 L 386 356 386 351.014 L 386 346.029 416.750 345.764 L 447.500 345.500 447.500 335.500 L 447.500 325.500 442.500 325.500 L 437.500 325.500 437.195 330.250 L 436.890 335 431.945 335 L 427 335 427 330 L 427 325 417 325 L 407 325 407 330 L 407 335 396.500 335 L 386 335 386 340.500 L 386 346 381.052 346 L 376.105 346 375.802 340.750 L 375.500 335.500 365.250 335.215 L 355 334.930 355 329.965 L 355 325 375.500 325 L 396 325 396 315.052 L 396 305.105 401.250 304.802 L 406.500 304.500 406.500 299.500 L 406.500 294.500 385.724 294.230 L 364.948 293.959 365.224 278.730 L 365.500 263.500 370.500 263.500 L 375.500 263.500 375.785 273.750 L 376.070 284 381.035 284 L 386 284 386 279 L 386 274 396.500 274 L 407 274 407 279 L 407 284 412 284 L 417 284 417 289 L 417 294 422 294 L 427 294 427 299.500 L 427 305 417 305 L 407 305 407 310 L 407 315 417 315 L 427 315 427 310 L 427 305 431.948 305 L 436.895 305 437.198 299.750 L 437.500 294.500 442.750 294.198 L 448 293.895 448 288.948 L 448 284 442.500 284 L 437 284 437 279 L 437 274 432 274 L 427 274 427 269 L 427 264 422 264 L 417 264 417 258.500 L 417 253 422 253 L 427 253 427 248 L 427 243 437.500 243 L 448 243 448 238 L 448 233 437.500 233 L 427 233 427 238 L 427 243 422 243 L 417 243 417 238 L 417 233 412.035 233 L 407.070 233 406.785 222.750 L 406.500 212.500 375.750 212.236 L 345 211.971 345 216.986 L 345 222 354.948 222 L 364.895 222 365.198 227.250 L 365.500 232.500 375.750 232.785 L 386 233.070 386 238.035 L 386 243 391 243 L 396 243 396 248 L 396 253 380.500 253 L 365 253 365 248 L 365 243 360 243 L 355 243 355 238 L 355 233 345 233 L 335 233 335 238 L 335 243 340 243 L 345 243 345 248 L 345 253 350 253 L 355 253 355 273.500 L 355 294 345 294 L 335 294 335 289 L 335 284 340 284 L 345 284 345 274 L 345 264 340 264 L 335 264 335 274 L 335 284 329.500 284 L 324 284 324 289 L 324 294 319 294 L 314 294 314 299.500 L 314 305 309 305 L 304 305 304 310 L 304 315 314 315 L 324 315 324 304.500 L 324 294 329.500 294 L 335 294 335 304.500 L 335 315 340 315 L 345 315 345 325 L 345 335 340.055 335 L 335.110 335 334.805 330.250 L 334.500 325.500 329.500 325.500 L 324.500 325.500 324.195 330.250 L 323.890 335 318.945 335 L 314 335 314 330 L 314 325 293.500 325 L 273 325 273 330 L 273 335 288.500 335 L 304 335 304 345.500 L 304 356 299 356 L 294 356 294 361 L 294 366 283.500 366 L 273 366 273 361.035 L 273 356.070 283.250 355.785 L 293.500 355.500 293.805 350.750 L 294.110 346 283.555 346 L 273 346 273 351 L 273 356 268.035 356 L 263.070 356 262.785 345.750 L 262.500 335.500 257.804 335.197 L 253.108 334.895 252.804 340.197 L 252.500 345.500 247.250 345.802 L 242 346.105 242 340.552 L 242 335 237 335 L 232 335 232 325 L 232 315 227 315 L 222 315 222 310.069 L 222 305.137 231.588 304.819 C 236.861 304.643, 241.361 304.687, 241.588 304.917 C 241.814 305.146, 242 309.758, 242 315.167 L 242 325 247 325 L 252 325 252 315 L 252 305 247 305 L 242 305 242 294.500 L 242 284 252.500 284 L 263 284 263 289 L 263 294 258 294 L 253 294 253 299.549 L 253 305.098 263 304.926 L 273 304.753 273 294.377 L 273 284 278 284 L 283 284 283 289 L 283 294 293.500 294 L 304 294 304 284 L 304 274 309 274 L 314 274 314 269 L 314 264 304 264 L 294 264 294 274 L 294 284 288.500 284 L 283 284 283 279 L 283 274 278 274 L 273 274 273 279 L 273 284 268 284 L 263 284 263 279.052 L 263 274.105 257.750 273.802 L 252.500 273.500 252.500 268.500 L 252.500 263.500 262.750 263.215 L 273 262.930 273 257.965 L 273 253 278 253 L 283 253 283 258 L 283 263 288.500 263 L 294 263 294 258 L 294 253 299 253 L 304 253 304 248 L 304 243 293.500 243 L 283 243 283 238 L 283 233 273 233 L 263 233 263 227.500 L 263 222 278.536 222 L 294.072 222 293.786 212.250 L 293.500 202.500 288.250 202.198 L 283 201.895 283 206.948 L 283 212 278 212 L 273 212 273 207 L 273 202 263 202 L 253 202 253 207 L 253 212 258 212 L 263 212 263 216.945 L 263 221.890 258.250 222.195 L 253.500 222.500 253 227.500 L 252.500 232.500 247.196 232.804 L 241.892 233.108 242.196 227.804 L 242.500 222.500 247.250 222.195 L 252 221.890 252 216.945 L 252 212 247 212 L 242 212 242 207 L 242 202 247 202 L 252 202 252 197.052 L 252 192.105 257.250 191.802 L 262.500 191.500 262.802 186.250 L 263.105 181 273.052 181 L 283 181 283 176 L 283 171 293.500 171 L 304 171 304 166 L 304 161 314 161 L 324 161 324 166 L 324 171 319 171 L 314 171 314 176 L 314 181 319 181 L 324 181 324 176 L 324 171 329.500 171 L 335 171 335 176 L 335 181 345 181 L 355 181 355 176 L 355 171 360 171 L 365 171 365 166 L 365 161 375.500 161 L 386 161 386 166 L 386 171 391 171 L 396 171 396 176 L 396 181 391 181 L 386 181 386 186.500 L 386 192 381 192 L 376 192 376 181.448 L 376 170.895 370.750 171.198 L 365.500 171.500 365.197 176.197 L 364.895 180.895 360.197 181.197 L 355.500 181.500 355.198 186.750 L 354.895 192 349.948 192 L 345 192 345 197 L 345 202 365.500 202 L 386 202 386 197.035 L 386 192.070 396.250 191.785 L 406.500 191.500 406.802 186.250 L 407.105 181 412.052 181 L 417 181 417 176 L 417 171 427 171 L 437 171 437 176 L 437 181 442.500 181 L 448 181 448 166 L 448 151 437.500 151 L 427 151 427 156 L 427 161 422 161 L 417 161 417 156 L 417 151 412 151 L 407 151 407 161 L 407 171 401.500 171 L 396 171 396 161.026 L 396 151.052 380.750 150.776 L 365.500 150.500 365.215 140.250 L 364.930 130 349.965 130 L 335 130 335 125 L 335 120 340 120 L 345 120 345 109.500 L 345 99 340 99 L 335 99 335 109.500 L 335 120 329.500 120 L 324 120 324 125 L 324 130 329.500 130 L 335 130 335 135 L 335 140 319.500 140 L 304 140 304 135 L 304 130 309 130 L 314 130 314 125 L 314 120 309 120 L 304 120 304 109.500 L 304 99 309 99 L 314 99 314 94 L 314 89 309.035 89 L 304.070 89 303.785 78.750 L 303.500 68.500 288.250 68.364 L 273 68.227 273 73.614 L 273 79 268.052 79 L 263.105 79 262.802 73.750 L 262.500 68.500 257.197 68.196 L 251.895 67.892 252.197 63.196 L 252.500 58.500 257.750 58.198 L 263 57.895 263 52.948 L 263 48 268 48 L 273 48 273 53 L 273 58 283.572 58 C 293.922 58, 294.139 57.953, 293.961 55.750 C 293.365 48.395, 293.622 48, 299 48 L 304 48 304 53 L 304 58 309 58 L 314 58 314 68.500 L 314 79 319 79 L 324 79 324 84 L 324 89 339.500 89 L 355 89 355 99 L 355 109 360 109 L 365 109 365 94 L 365 79 360 79 L 355 79 355 73.500 L 355 68 360 68 L 365 68 365 63 L 365 58 360 58 L 355 58 355 63 L 355 68 350 68 L 345 68 345 63 L 345 58 340 58 L 335 58 335 63 L 335 68 340 68 L 345 68 345 73.500 L 345 79 340.052 79 L 335.105 79 334.802 73.750 L 334.500 68.500 329.250 68.198 L 324 67.895 324 57.948 L 324 48 344.500 48 L 365 48 365 43 L 365 38 339.500 38 L 314 38 314 43 L 314 48 309 48 L 304 48 304 43 L 304 38 299 38 L 294 38 294 43 L 294 48 283.500 48 L 273 48 273 43 L 273 38 268 38 L 263 38 263 43 L 263 48 247.500 48 L 232 48 232 43 L 232 38 227 38 L 222 38 222 42.948 L 222 47.895 216.750 48.198 L 211.500 48.500 211.195 53.250 L 210.890 58 216.445 58 L 222 58 222 63 L 222 68 211.500 68 L 201 68 201 63 L 201 58 196 58 L 191 58 191 53 L 191 48 201 48 L 211 48 211 43 L 211 38 185.500 38 L 160 38 160 43 M 376 73.500 L 376 109 412 109 L 448 109 448 73.500 L 448 38 412 38 L 376 38 376 73.500 M 37 73.500 L 37 99 62.500 99 L 88 99 88 73.500 L 88 48 62.500 48 L 37 48 37 73.500 M 109 53 L 109 58 114 58 L 119 58 119 53 L 119 48 114 48 L 109 48 109 53 M 222 53 L 222 58 227 58 L 232 58 232 53 L 232 48 227 48 L 222 48 222 53 M 386 73.500 L 386 99 411.500 99 L 437 99 437 73.500 L 437 48 411.500 48 L 386 48 386 73.500 M 47 73.500 L 47 89 62.500 89 L 78 89 78 73.500 L 78 58 62.500 58 L 47 58 47 73.500 M 140 63 L 140 68 145 68 L 150 68 150 63 L 150 58 145 58 L 140 58 140 63 M 396 73.500 L 396 89 411.500 89 L 427 89 427 73.500 L 427 58 411.500 58 L 396 58 396 73.500 M 222 73.500 L 222 79 232 79 L 242 79 242 73.500 L 242 68 232 68 L 222 68 222 73.500 M 273 84 L 273 89 262.500 89 L 252 89 252 94 L 252 99 247.052 99 L 242.105 99 241.802 104.174 L 241.500 109.347 236.750 109.291 L 232 109.235 232 114.617 L 232 120 237 120 L 242 120 242 125 L 242 130 247.500 130 L 253 130 253 125 L 253 120 247.500 120 L 242 120 242 115.052 L 242 110.105 247.250 109.802 L 252.500 109.500 252.802 104.250 L 253.105 99 258.052 99 L 263 99 263 114.500 L 263 130 268 130 L 273 130 273 134.965 L 273 139.930 262.750 140.215 L 252.500 140.500 252.500 145.500 L 252.500 150.500 262.750 150.785 L 273 151.070 273 161.035 L 273 171 278 171 L 283 171 283 166 L 283 161 293.500 161 L 304 161 304 156 L 304 151 299 151 L 294 151 294 140.500 L 294 130 283.500 130 L 273 130 273 114.500 L 273 99 278 99 L 283 99 283 109.552 L 283 120.105 288.250 119.802 L 293.500 119.500 293.785 109.250 L 294.070 99 299.035 99 L 304 99 304 94 L 304 89 299 89 L 294 89 294 84 L 294 79 283.500 79 L 273 79 273 84 M 129 103.948 L 129 109 134.555 109 L 140.110 109 139.805 104.250 L 139.500 99.500 134.250 99.198 L 129 98.895 129 103.948 M 181 104.555 L 181 110.110 185.750 109.805 L 190.500 109.500 190.802 104.250 L 191.105 99 186.052 99 L 181 99 181 104.555 M 314.667 99.667 C 314.300 100.033, 314 102.283, 314 104.667 L 314 109 319 109 L 324 109 324 104 L 324 99 319.667 99 C 317.283 99, 315.033 99.300, 314.667 99.667 M 27 130 L 27 140 37 140 L 47 140 47 135 L 47 130 62.500 130 L 78 130 78 125 L 78 120 52.500 120 L 27 120 27 130 M 181 125 L 181 130 191 130 L 201 130 201 125 L 201 120 191 120 L 181 120 181 125 M 365.195 124.750 L 365.500 129.500 370.750 129.802 L 376 130.105 376 135.052 L 376 140 396.500 140 L 417 140 417 130 L 417 120 412 120 L 407 120 407 125 L 407 130 401.500 130 L 396 130 396 125 L 396 120 391 120 L 386 120 386 125 L 386 130 381 130 L 376 130 376 125 L 376 120 370.445 120 L 364.890 120 365.195 124.750 M 427 130 L 427 140 437.500 140 L 448 140 448 135 L 448 130 442.500 130 L 437 130 437 125 L 437 120 432 120 L 427 120 427 130 M 211.667 130.667 C 211.300 131.033, 211 133.283, 211 135.667 L 211 140 216.500 140 L 222 140 222 135 L 222 130 217.167 130 C 214.508 130, 212.033 130.300, 211.667 130.667 M 47.667 140.667 C 47.300 141.033, 47 143.508, 47 146.167 L 47 151 37 151 L 27 151 27 176.500 L 27 202 37 202 L 47 202 47 207 L 47 212 57.500 212 L 68 212 68 191.500 L 68 171 73 171 L 78 171 78 166 L 78 161 83 161 L 88 161 88 166 L 88 171 93 171 L 98 171 98 166 L 98 161 93 161 L 88 161 88 156 L 88 151 83 151 L 78 151 78 156 L 78 161 67.500 161 L 57 161 57 150.500 L 57 140 52.667 140 C 50.283 140, 48.033 140.300, 47.667 140.667 M 150 145.500 L 150 151 155 151 L 160 151 160 145.500 L 160 140 155 140 L 150 140 150 145.500 M 345 150.500 L 345 161 340 161 L 335 161 335 156 L 335 151 329.500 151 L 324 151 324 156 L 324 161 329.500 161 L 335 161 335 166 L 335 171 345 171 L 355 171 355 155.500 L 355 140 350 140 L 345 140 345 150.500 M 47 166 L 47 171 42 171 L 37 171 37 175.903 L 37 180.807 42.001 181.153 L 47.001 181.500 47.001 176.250 L 47 171 52 171 L 57 171 57 166 L 57 161 52 161 L 47 161 47 166 M 109 170.965 L 109 180.930 98.750 181.215 L 88.500 181.500 88.500 186.500 L 88.500 191.500 93.250 191.805 L 98 192.110 98 197.055 L 98 202 93 202 L 88 202 88 197 L 88 192 83 192 L 78 192 78 197 L 78 202 83 202 L 88 202 88 207 L 88 212 93 212 L 98 212 98 216.945 L 98 221.890 93.250 222.195 L 88.500 222.500 88.198 227.750 L 87.895 233 92.948 233 L 98 233 98 227.500 L 98 222 103.500 222 L 109 222 109 217 L 109 212 114 212 L 119 212 119 207 L 119 202 114 202 L 109 202 109 197 L 109 192 114 192 L 119 192 119 181.500 L 119 171 124 171 L 129 171 129 176 L 129 181 134.555 181 L 140.110 181 139.805 176.250 L 139.500 171.500 134.250 171.198 L 129 170.895 129 165.948 L 129 161 119 161 L 109 161 109 170.965 M 150 176 L 150 181 155 181 L 160 181 160 176 L 160 171 155 171 L 150 171 150 176 M 252.667 171.667 C 252.300 172.033, 252 174.283, 252 176.667 L 252 181 257.500 181 L 263 181 263 176 L 263 171 258.167 171 C 255.508 171, 253.033 171.300, 252.667 171.667 M 283.423 182.340 C 283.117 183.137, 283.009 185.524, 283.183 187.645 L 283.500 191.500 288.500 191.500 L 293.500 191.500 293.500 186.500 L 293.500 181.500 288.740 181.195 C 285.292 180.974, 283.826 181.289, 283.423 182.340 M 304 196.445 L 304 212 309 212 L 314 212 314.001 217.250 L 314.003 222.500 304.251 222.500 L 294.500 222.500 294.198 227.750 L 293.895 233 303.948 233 L 314 233 314 243 L 314 253 319 253 L 324 253 324 243.052 L 324 233.105 329.250 232.802 L 334.500 232.500 334.776 217.250 L 335.052 202 329.526 202 L 324 202 324 207 L 324 212 319.026 212 L 314.052 212 313.776 196.750 L 313.500 181.500 308.750 181.195 L 304 180.890 304 196.445 M 47 197 L 47 202 52 202 L 57 202 57 197 L 57 192 52 192 L 47 192 47 197 M 150 202 L 150 212 155 212 L 160 212 160 202 L 160 192 155 192 L 150 192 150 202 M 407 197 L 407 202 412 202 L 417 202 417 197 L 417 192 412 192 L 407 192 407 197 M 427 197 L 427 202 432 202 L 437 202 437 197 L 437 192 432 192 L 427 192 427 197 M 129 207 L 129 212 134.500 212 L 140 212 140 207 L 140 202 134.500 202 L 129 202 129 207 M 427 216.965 L 427 222 437.555 222 L 448.110 222 447.805 217.250 L 447.500 212.500 437.250 212.215 L 427 211.930 427 216.965 M 129.423 223.340 C 129.117 224.137, 129.009 226.524, 129.183 228.645 L 129.500 232.500 134.750 232.802 L 140 233.105 140 238.052 L 140 243 145 243 L 150 243 150 248 L 150 253 155 253 L 160 253 160 243 L 160 233 150.052 233 L 140.105 233 139.802 227.750 L 139.500 222.500 134.740 222.195 C 131.292 221.974, 129.826 222.289, 129.423 223.340 M 109 238 L 109 243 98.500 243 L 88 243 88 248 L 88 253 98.500 253 L 109 253 109 248 L 109 243 114 243 L 119 243 119 238 L 119 233 114 233 L 109 233 109 238 M 263 248 L 263 253 268 253 L 273 253 273 248 L 273 243 268 243 L 263 243 263 248 M 437.713 253.621 C 437.321 254.013, 437 256.283, 437 258.667 L 437 263 442.555 263 L 448.110 263 447.805 258.250 L 447.500 253.500 442.963 253.204 C 440.467 253.041, 438.105 253.229, 437.713 253.621 M 211.195 268.750 L 211.500 273.500 216.500 273.500 L 221.500 273.500 221.805 268.750 L 222.110 264 216.500 264 L 210.890 264 211.195 268.750 M 37 279 L 37 284 42 284 L 47 284 47 294.500 L 47 305 62.500 305 L 78 305 78 294.500 L 78 284 73 284 L 68 284 68 289 L 68 294 62.500 294 L 57 294 57 284 L 57 274 47 274 L 37 274 37 279 M 417 279 L 417 284 422 284 L 427 284 427 279 L 427 274 422 274 L 417 274 417 279 M 191 289 L 191 294 196 294 L 201 294 201 289 L 201 284 196 284 L 191 284 191 289 M 88 299.500 L 88 305 93 305 L 98 305 98 299.500 L 98 294 93 294 L 88 294 88 299.500 M 109 299.500 L 109 305 114 305 L 119 305 119 299.500 L 119 294 114 294 L 109 294 109 299.500 M 170.196 299.196 L 170.500 304.500 175.500 304.500 L 180.500 304.500 180.500 299.500 L 180.500 294.500 175.196 294.196 L 169.892 293.892 170.196 299.196 M 191.429 304.904 C 191.193 305.140, 191 307.508, 191 310.167 L 191 315 196 315 L 201 315 201 320 L 201 325 196 325 L 191 325 191 330 L 191 335 180.500 335 L 170 335 170 330 L 170 325 175.500 325 L 181 325 181 320 L 181 315 175.500 315 L 170 315 170 320 L 170 325 160 325 L 150 325 150 330 L 150 335 159.948 335 L 169.895 335 170.198 340.250 L 170.500 345.500 180.750 345.785 L 191 346.070 191 340.535 L 191 335 200.948 335 L 210.895 335 211.198 340.250 L 211.500 345.500 216.750 345.802 L 222 346.105 222 356.105 L 222 366.105 216.750 365.802 C 211.017 365.472, 211.536 366.211, 211.092 357.750 C 211.011 356.206, 209.822 356, 201 356 L 191 356 191 361 L 191 366 186 366 L 181 366 181 371 L 181 376 186 376 L 191 376 191 371 L 191 366 201 366 L 211 366 211 371 L 211 376 216.500 376 L 222 376 222 371 L 222 366 227 366 L 232 366 232 356 L 232 346 227 346 L 222 346 222 335.552 L 222 325.105 216.750 324.802 C 211.017 324.472, 211.536 325.211, 211.092 316.750 C 211.017 315.329, 210.060 315, 206 315 L 201 315 201 310.101 L 201 305.201 196.429 304.838 C 193.916 304.638, 191.666 304.668, 191.429 304.904 M 283.195 309.750 L 283.500 314.500 288.500 314.500 L 293.500 314.500 293.805 309.750 L 294.110 305 288.500 305 L 282.890 305 283.195 309.750 M 345 310 L 345 315 360.500 315 L 376 315 376 310 L 376 305 360.500 305 L 345 305 345 310 M 57 320 L 57 325 62.500 325 L 68 325 68 320 L 68 315 62.500 315 L 57 315 57 320 M 27 355.445 L 27 376 32.021 376 L 37.041 376 36.771 355.750 L 36.500 335.500 31.750 335.195 L 27 334.890 27 355.445 M 47 371 L 47 376 52 376 L 57 376 57 371 L 57 366 52 366 L 47 366 47 371 M 88 371 L 88 376 98.500 376 L 109 376 109 386.500 L 109 397 114 397 L 119 397 119 392 L 119 387 123.948 387 L 128.895 387 129.198 381.750 L 129.500 376.500 134.803 376.196 L 140.105 375.892 139.803 371.196 L 139.500 366.500 129.250 366.215 L 119 365.930 119 370.965 L 119 376 114 376 L 109 376 109 371 L 109 366 98.500 366 L 88 366 88 371 M 263 370.945 L 263 375.890 267.750 376.195 L 272.500 376.500 272.802 381.750 L 273.105 387 278.052 387 L 283 387 283 381.500 L 283 376 278 376 L 273 376 273 371 L 273 366 268 366 L 263 366 263 370.945 M 427 371 L 427 376 432 376 L 437 376 437 371 L 437 366 432 366 L 427 366 427 371 M 365.667 376.667 C 365.300 377.033, 365 384.008, 365 392.167 L 365 407 380.500 407 L 396 407 396 391.500 L 396 376 381.167 376 C 373.008 376, 366.033 376.300, 365.667 376.667 M 27 423 L 27 459 62.500 459 L 98 459 98 423 L 98 387 62.500 387 L 27 387 27 423 M 376 392 L 376 397 381 397 L 386 397 386 392 L 386 387 381 387 L 376 387 376 392 M 37 422.500 L 37 448 62.500 448 L 88 448 88 422.500 L 88 397 62.500 397 L 37 397 37 422.500 M 150 402 L 150 407 145 407 L 140 407 140 412 L 140 417 150 417 L 160 417 160 407 L 160 397 155 397 L 150 397 150 402 M 47 422.500 L 47 438 62.500 438 L 78 438 78 422.500 L 78 407 62.500 407 L 47 407 47 422.500 M 109 433.021 L 109 459.041 129.250 458.771 L 149.500 458.500 149.785 448.250 L 150.070 438 155.035 438 L 160 438 160 433 L 160 428 150 428 L 140 428 140 438 L 140 448 134.500 448 L 129 448 129 443 L 129 438 124 438 L 119 438 119 433 L 119 428 124 428 L 129 428 129 423 L 129 418 124 418 L 119 418 119 412.500 L 119 407 114 407 L 109 407 109 433.021 M 417 411.974 L 417 417 426.948 417 L 436.895 417 437.198 422.250 L 437.500 427.500 442.500 427.500 L 447.500 427.500 447.500 417.500 L 447.500 407.500 432.250 407.224 L 417 406.948 417 411.974 M 170 428 L 170 438 175.500 438 L 181 438 181 443 L 181 448 170.448 448 L 159.895 448 160.198 453.250 L 160.500 458.500 175.500 458.500 L 190.500 458.500 190.785 448.250 L 191.070 438 201.035 438 L 211 438 211 428 L 211 418 201 418 L 191 418 191 423 L 191 428 186 428 L 181 428 181 423 L 181 418 175.500 418 L 170 418 170 428 M 407 423 L 407 428 412 428 L 417 428 417 433 L 417 438 412 438 L 407 438 407 443 L 407 448 412 448 L 417 448 417 453.500 L 417 459 422 459 L 427 459 427 453.500 L 427 448 432 448 L 437 448 437 443 L 437 438 432 438 L 427 438 427 433 L 427 428 422 428 L 417 428 417 423 L 417 418 412 418 L 407 418 407 423 M 263 438 L 263 448 268 448 L 273 448 273 443 L 273 438 278 438 L 283 438 283 443 L 283 448 288.500 448 L 294 448 294 443 L 294 438 288.500 438 L 283 438 283 433 L 283 428 273 428 L 263 428 263 438 M 376 443 L 376 448 381 448 L 386 448 386 443 L 386 438 381 438 L 376 438 376 443 M 417 443 L 417 448 422 448 L 427 448 427 443 L 427 438 422 438 L 417 438 417 443 M 201.402 449.395 C 201.108 450.162, 201.009 452.524, 201.183 454.645 L 201.500 458.500 206 458.500 L 210.500 458.500 210.802 453.250 L 211.105 448 206.521 448 C 203.523 448, 201.752 448.482, 201.402 449.395" stroke="none" fill="#FFFFFF" fill-rule="evenodd"/>
</svg>